<mxfile host="app.diagrams.net" agent="Mozilla/5.0 (Macintosh; Intel Mac OS X 10_15_7) AppleWebKit/537.36 (KHTML, like Gecko) Chrome/131.0.0.0 Safari/537.36" version="25.0.3">
  <diagram name="Page-1" id="3M9jQRyPrjrfi4vgrZQc">
    <mxGraphModel dx="2074" dy="1121" grid="1" gridSize="10" guides="1" tooltips="1" connect="1" arrows="1" fold="1" page="1" pageScale="1" pageWidth="827" pageHeight="1169" math="0" shadow="0">
      <root>
        <mxCell id="0" />
        <mxCell id="1" parent="0" />
        <mxCell id="CW4PbJ1Oaoi_kqZTBhGn-12" style="edgeStyle=orthogonalEdgeStyle;rounded=0;orthogonalLoop=1;jettySize=auto;html=1;entryX=1;entryY=0.5;entryDx=0;entryDy=0;" edge="1" parent="1" source="De63i7EJQq2cx_wD7R2N-3" target="De63i7EJQq2cx_wD7R2N-9">
          <mxGeometry relative="1" as="geometry" />
        </mxCell>
        <mxCell id="CW4PbJ1Oaoi_kqZTBhGn-13" style="edgeStyle=orthogonalEdgeStyle;rounded=0;orthogonalLoop=1;jettySize=auto;html=1;" edge="1" parent="1" source="De63i7EJQq2cx_wD7R2N-3" target="CW4PbJ1Oaoi_kqZTBhGn-9">
          <mxGeometry relative="1" as="geometry" />
        </mxCell>
        <mxCell id="CW4PbJ1Oaoi_kqZTBhGn-14" style="edgeStyle=orthogonalEdgeStyle;rounded=0;orthogonalLoop=1;jettySize=auto;html=1;exitX=0;exitY=0.5;exitDx=0;exitDy=0;entryX=0.5;entryY=0;entryDx=0;entryDy=0;" edge="1" parent="1" source="De63i7EJQq2cx_wD7R2N-3" target="CW4PbJ1Oaoi_kqZTBhGn-1">
          <mxGeometry relative="1" as="geometry" />
        </mxCell>
        <mxCell id="CW4PbJ1Oaoi_kqZTBhGn-15" style="edgeStyle=orthogonalEdgeStyle;rounded=0;orthogonalLoop=1;jettySize=auto;html=1;exitX=1;exitY=0.5;exitDx=0;exitDy=0;" edge="1" parent="1" source="De63i7EJQq2cx_wD7R2N-3" target="CW4PbJ1Oaoi_kqZTBhGn-10">
          <mxGeometry relative="1" as="geometry" />
        </mxCell>
        <mxCell id="De63i7EJQq2cx_wD7R2N-3" value="android-app" style="rounded=0;whiteSpace=wrap;html=1;fillColor=#d5e8d4;strokeColor=#82b366;" parent="1" vertex="1">
          <mxGeometry x="248" y="40" width="120" height="40" as="geometry" />
        </mxCell>
        <mxCell id="De63i7EJQq2cx_wD7R2N-4" value="core-ui" style="rounded=0;whiteSpace=wrap;html=1;fillColor=#d5e8d4;strokeColor=#82b366;" parent="1" vertex="1">
          <mxGeometry x="174" y="100" width="120" height="40" as="geometry" />
        </mxCell>
        <mxCell id="De63i7EJQq2cx_wD7R2N-5" value="core-res" style="rounded=0;whiteSpace=wrap;html=1;fillColor=#d5e8d4;strokeColor=#82b366;" parent="1" vertex="1">
          <mxGeometry x="334" y="100" width="120" height="40" as="geometry" />
        </mxCell>
        <mxCell id="CW4PbJ1Oaoi_kqZTBhGn-11" style="edgeStyle=orthogonalEdgeStyle;rounded=0;orthogonalLoop=1;jettySize=auto;html=1;entryX=0.5;entryY=0;entryDx=0;entryDy=0;" edge="1" parent="1" source="De63i7EJQq2cx_wD7R2N-8" target="De63i7EJQq2cx_wD7R2N-9">
          <mxGeometry relative="1" as="geometry" />
        </mxCell>
        <mxCell id="De63i7EJQq2cx_wD7R2N-8" value="ios-app" style="rounded=0;whiteSpace=wrap;html=1;fillColor=#f5f5f5;fontColor=#333333;strokeColor=#666666;" parent="1" vertex="1">
          <mxGeometry x="614" y="160" width="120" height="40" as="geometry" />
        </mxCell>
        <mxCell id="CW4PbJ1Oaoi_kqZTBhGn-30" style="edgeStyle=orthogonalEdgeStyle;rounded=0;orthogonalLoop=1;jettySize=auto;html=1;entryX=0.5;entryY=0;entryDx=0;entryDy=0;" edge="1" parent="1" source="De63i7EJQq2cx_wD7R2N-9" target="CW4PbJ1Oaoi_kqZTBhGn-5">
          <mxGeometry relative="1" as="geometry" />
        </mxCell>
        <mxCell id="CW4PbJ1Oaoi_kqZTBhGn-31" style="edgeStyle=orthogonalEdgeStyle;rounded=0;orthogonalLoop=1;jettySize=auto;html=1;exitX=0;exitY=0.5;exitDx=0;exitDy=0;entryX=0.5;entryY=0;entryDx=0;entryDy=0;" edge="1" parent="1" source="De63i7EJQq2cx_wD7R2N-9" target="CW4PbJ1Oaoi_kqZTBhGn-4">
          <mxGeometry relative="1" as="geometry" />
        </mxCell>
        <mxCell id="CW4PbJ1Oaoi_kqZTBhGn-32" style="edgeStyle=orthogonalEdgeStyle;rounded=0;orthogonalLoop=1;jettySize=auto;html=1;exitX=0;exitY=0.5;exitDx=0;exitDy=0;" edge="1" parent="1" source="De63i7EJQq2cx_wD7R2N-9" target="De63i7EJQq2cx_wD7R2N-12">
          <mxGeometry relative="1" as="geometry" />
        </mxCell>
        <mxCell id="De63i7EJQq2cx_wD7R2N-9" value="kmp-shared" style="rounded=0;whiteSpace=wrap;html=1;fillColor=#dae8fc;strokeColor=#6c8ebf;" parent="1" vertex="1">
          <mxGeometry x="614" y="240" width="120" height="40" as="geometry" />
        </mxCell>
        <mxCell id="CW4PbJ1Oaoi_kqZTBhGn-19" style="edgeStyle=orthogonalEdgeStyle;rounded=0;orthogonalLoop=1;jettySize=auto;html=1;exitX=0.5;exitY=1;exitDx=0;exitDy=0;entryX=0.5;entryY=0;entryDx=0;entryDy=0;" edge="1" parent="1" source="De63i7EJQq2cx_wD7R2N-12" target="De63i7EJQq2cx_wD7R2N-13">
          <mxGeometry relative="1" as="geometry" />
        </mxCell>
        <mxCell id="CW4PbJ1Oaoi_kqZTBhGn-20" style="edgeStyle=orthogonalEdgeStyle;rounded=0;orthogonalLoop=1;jettySize=auto;html=1;exitX=0.5;exitY=1;exitDx=0;exitDy=0;entryX=0.5;entryY=0;entryDx=0;entryDy=0;" edge="1" parent="1" source="De63i7EJQq2cx_wD7R2N-12" target="CW4PbJ1Oaoi_kqZTBhGn-7">
          <mxGeometry relative="1" as="geometry" />
        </mxCell>
        <mxCell id="De63i7EJQq2cx_wD7R2N-12" value="kmp-feature-1" style="rounded=0;whiteSpace=wrap;html=1;fillColor=#dae8fc;strokeColor=#6c8ebf;" parent="1" vertex="1">
          <mxGeometry x="94" y="320" width="120" height="40" as="geometry" />
        </mxCell>
        <mxCell id="De63i7EJQq2cx_wD7R2N-13" value="data-1" style="rounded=0;whiteSpace=wrap;html=1;fillColor=#dae8fc;strokeColor=#6c8ebf;" parent="1" vertex="1">
          <mxGeometry x="74" y="440" width="60" height="40" as="geometry" />
        </mxCell>
        <mxCell id="De63i7EJQq2cx_wD7R2N-14" value="data-2" style="rounded=0;whiteSpace=wrap;html=1;fillColor=#dae8fc;strokeColor=#6c8ebf;" parent="1" vertex="1">
          <mxGeometry x="294" y="440" width="60" height="40" as="geometry" />
        </mxCell>
        <mxCell id="CW4PbJ1Oaoi_kqZTBhGn-28" style="edgeStyle=orthogonalEdgeStyle;rounded=0;orthogonalLoop=1;jettySize=auto;html=1;entryX=0.5;entryY=1;entryDx=0;entryDy=0;" edge="1" parent="1" source="De63i7EJQq2cx_wD7R2N-15" target="De63i7EJQq2cx_wD7R2N-13">
          <mxGeometry relative="1" as="geometry" />
        </mxCell>
        <mxCell id="De63i7EJQq2cx_wD7R2N-15" value="kmp-local" style="rounded=0;whiteSpace=wrap;html=1;fillColor=#dae8fc;strokeColor=#6c8ebf;" parent="1" vertex="1">
          <mxGeometry x="134" y="520" width="120" height="40" as="geometry" />
        </mxCell>
        <mxCell id="CW4PbJ1Oaoi_kqZTBhGn-29" style="edgeStyle=orthogonalEdgeStyle;rounded=0;orthogonalLoop=1;jettySize=auto;html=1;entryX=0.5;entryY=1;entryDx=0;entryDy=0;" edge="1" parent="1" source="De63i7EJQq2cx_wD7R2N-16" target="De63i7EJQq2cx_wD7R2N-14">
          <mxGeometry relative="1" as="geometry" />
        </mxCell>
        <mxCell id="De63i7EJQq2cx_wD7R2N-16" value="kmp-remote" style="rounded=0;whiteSpace=wrap;html=1;fillColor=#dae8fc;strokeColor=#6c8ebf;" parent="1" vertex="1">
          <mxGeometry x="334" y="520" width="120" height="40" as="geometry" />
        </mxCell>
        <mxCell id="CW4PbJ1Oaoi_kqZTBhGn-16" style="edgeStyle=orthogonalEdgeStyle;rounded=0;orthogonalLoop=1;jettySize=auto;html=1;exitX=0.5;exitY=1;exitDx=0;exitDy=0;" edge="1" parent="1" source="CW4PbJ1Oaoi_kqZTBhGn-1" target="De63i7EJQq2cx_wD7R2N-12">
          <mxGeometry relative="1" as="geometry" />
        </mxCell>
        <mxCell id="CW4PbJ1Oaoi_kqZTBhGn-1" value="android-feature-1-ui" style="rounded=0;whiteSpace=wrap;html=1;fillColor=#d5e8d4;strokeColor=#82b366;" vertex="1" parent="1">
          <mxGeometry x="94" y="160" width="120" height="40" as="geometry" />
        </mxCell>
        <mxCell id="CW4PbJ1Oaoi_kqZTBhGn-21" style="edgeStyle=orthogonalEdgeStyle;rounded=0;orthogonalLoop=1;jettySize=auto;html=1;entryX=0.5;entryY=0;entryDx=0;entryDy=0;" edge="1" parent="1" source="CW4PbJ1Oaoi_kqZTBhGn-4" target="De63i7EJQq2cx_wD7R2N-14">
          <mxGeometry relative="1" as="geometry" />
        </mxCell>
        <mxCell id="CW4PbJ1Oaoi_kqZTBhGn-22" style="edgeStyle=orthogonalEdgeStyle;rounded=0;orthogonalLoop=1;jettySize=auto;html=1;exitX=0.5;exitY=1;exitDx=0;exitDy=0;entryX=0.5;entryY=0;entryDx=0;entryDy=0;" edge="1" parent="1" source="CW4PbJ1Oaoi_kqZTBhGn-4" target="CW4PbJ1Oaoi_kqZTBhGn-8">
          <mxGeometry relative="1" as="geometry" />
        </mxCell>
        <mxCell id="CW4PbJ1Oaoi_kqZTBhGn-4" value="kmp-feature-2" style="rounded=0;whiteSpace=wrap;html=1;fillColor=#dae8fc;strokeColor=#6c8ebf;" vertex="1" parent="1">
          <mxGeometry x="248" y="320" width="120" height="40" as="geometry" />
        </mxCell>
        <mxCell id="CW4PbJ1Oaoi_kqZTBhGn-23" style="edgeStyle=orthogonalEdgeStyle;rounded=0;orthogonalLoop=1;jettySize=auto;html=1;exitX=0.5;exitY=1;exitDx=0;exitDy=0;entryX=0.5;entryY=0;entryDx=0;entryDy=0;" edge="1" parent="1" source="CW4PbJ1Oaoi_kqZTBhGn-5" target="De63i7EJQq2cx_wD7R2N-14">
          <mxGeometry relative="1" as="geometry" />
        </mxCell>
        <mxCell id="CW4PbJ1Oaoi_kqZTBhGn-5" value="kmp-feature-3" style="rounded=0;whiteSpace=wrap;html=1;fillColor=#dae8fc;strokeColor=#6c8ebf;" vertex="1" parent="1">
          <mxGeometry x="404" y="320" width="120" height="40" as="geometry" />
        </mxCell>
        <mxCell id="CW4PbJ1Oaoi_kqZTBhGn-24" style="edgeStyle=orthogonalEdgeStyle;rounded=0;orthogonalLoop=1;jettySize=auto;html=1;entryX=0.5;entryY=0;entryDx=0;entryDy=0;" edge="1" parent="1" source="CW4PbJ1Oaoi_kqZTBhGn-7" target="De63i7EJQq2cx_wD7R2N-15">
          <mxGeometry relative="1" as="geometry" />
        </mxCell>
        <mxCell id="CW4PbJ1Oaoi_kqZTBhGn-25" style="edgeStyle=orthogonalEdgeStyle;rounded=0;orthogonalLoop=1;jettySize=auto;html=1;exitX=0.5;exitY=1;exitDx=0;exitDy=0;" edge="1" parent="1" source="CW4PbJ1Oaoi_kqZTBhGn-7" target="De63i7EJQq2cx_wD7R2N-16">
          <mxGeometry relative="1" as="geometry" />
        </mxCell>
        <mxCell id="CW4PbJ1Oaoi_kqZTBhGn-7" value="repository-1" style="rounded=0;whiteSpace=wrap;html=1;fillColor=#dae8fc;strokeColor=#6c8ebf;" vertex="1" parent="1">
          <mxGeometry x="174" y="440" width="70" height="40" as="geometry" />
        </mxCell>
        <mxCell id="CW4PbJ1Oaoi_kqZTBhGn-26" style="edgeStyle=orthogonalEdgeStyle;rounded=0;orthogonalLoop=1;jettySize=auto;html=1;entryX=0.5;entryY=0;entryDx=0;entryDy=0;" edge="1" parent="1" source="CW4PbJ1Oaoi_kqZTBhGn-8" target="De63i7EJQq2cx_wD7R2N-16">
          <mxGeometry relative="1" as="geometry" />
        </mxCell>
        <mxCell id="CW4PbJ1Oaoi_kqZTBhGn-27" style="edgeStyle=orthogonalEdgeStyle;rounded=0;orthogonalLoop=1;jettySize=auto;html=1;exitX=0.5;exitY=1;exitDx=0;exitDy=0;entryX=0.5;entryY=0;entryDx=0;entryDy=0;" edge="1" parent="1" source="CW4PbJ1Oaoi_kqZTBhGn-8" target="De63i7EJQq2cx_wD7R2N-15">
          <mxGeometry relative="1" as="geometry" />
        </mxCell>
        <mxCell id="CW4PbJ1Oaoi_kqZTBhGn-8" value="repository-2" style="rounded=0;whiteSpace=wrap;html=1;fillColor=#dae8fc;strokeColor=#6c8ebf;" vertex="1" parent="1">
          <mxGeometry x="404" y="440" width="70" height="40" as="geometry" />
        </mxCell>
        <mxCell id="CW4PbJ1Oaoi_kqZTBhGn-17" style="edgeStyle=orthogonalEdgeStyle;rounded=0;orthogonalLoop=1;jettySize=auto;html=1;exitX=0.5;exitY=1;exitDx=0;exitDy=0;entryX=0.5;entryY=0;entryDx=0;entryDy=0;" edge="1" parent="1" source="CW4PbJ1Oaoi_kqZTBhGn-9" target="CW4PbJ1Oaoi_kqZTBhGn-4">
          <mxGeometry relative="1" as="geometry" />
        </mxCell>
        <mxCell id="CW4PbJ1Oaoi_kqZTBhGn-9" value="android-feature-2-ui" style="rounded=0;whiteSpace=wrap;html=1;fillColor=#d5e8d4;strokeColor=#82b366;" vertex="1" parent="1">
          <mxGeometry x="248" y="160" width="120" height="40" as="geometry" />
        </mxCell>
        <mxCell id="CW4PbJ1Oaoi_kqZTBhGn-18" style="edgeStyle=orthogonalEdgeStyle;rounded=0;orthogonalLoop=1;jettySize=auto;html=1;" edge="1" parent="1" source="CW4PbJ1Oaoi_kqZTBhGn-10" target="CW4PbJ1Oaoi_kqZTBhGn-5">
          <mxGeometry relative="1" as="geometry" />
        </mxCell>
        <mxCell id="CW4PbJ1Oaoi_kqZTBhGn-10" value="android-feature-3-ui" style="rounded=0;whiteSpace=wrap;html=1;fillColor=#d5e8d4;strokeColor=#82b366;" vertex="1" parent="1">
          <mxGeometry x="404" y="160" width="120" height="40" as="geometry" />
        </mxCell>
      </root>
    </mxGraphModel>
  </diagram>
</mxfile>
